<svg width="800" height="1024" viewBox="0 0 800 1024" fill="none" xmlns="http://www.w3.org/2000/svg">
<path fill-rule="evenodd" clip-rule="evenodd" d="M300 324C300 379.228 344.772 424 400 424H600V224H400C344.772 224 300 268.772 300 324Z" fill="#06818E"/>
<rect y="824" width="200" height="200" fill="#FFC641"/>
<path d="M200 824H300C355.228 824 400 868.772 400 924V924C400 979.228 355.228 1024 300 1024H200V824Z" fill="#FE5E33"/>
<path d="M200 624H300C355.228 624 400 668.772 400 724V724C400 779.228 355.228 824 300 824H200V624Z" fill="#16A3B2"/>
<path d="M600 1024C600 914.637 688.656 824 798.02 824V824C799.113 824 800 824.887 800 825.98V1024H600V1024Z" fill="#FE5E33"/>
<path fill-rule="evenodd" clip-rule="evenodd" d="M700 24C644.772 24 600 68.7715 600 124V224V424H800V224V124C800 68.7715 755.228 24 700 24Z" fill="#FE5E33"/>
<path fill-rule="evenodd" clip-rule="evenodd" d="M600 124H800C800 179.228 755.228 224 700 224C644.772 224 600 179.228 600 124Z" fill="#FFC641"/>
<path d="M800 624C800 733.363 711.344 824 601.98 824V824C600.887 824 600 823.113 600 822.02L600 624L800 624V624Z" fill="#16A3B2"/>
<path fill-rule="evenodd" clip-rule="evenodd" d="M600 0H400V24C400 79.2285 444.772 124 500 124C555.228 124 600 79.2285 600 24V0Z" fill="#FF87A2"/>
<rect x="600" y="424" width="200" height="200" fill="#111747"/>
<path fill-rule="evenodd" clip-rule="evenodd" d="M600 424C544.772 424 500 379.228 500 324C500 268.772 544.772 224 600 224V424Z" fill="#16A3B2"/>
<path fill-rule="evenodd" clip-rule="evenodd" d="M600 424V224C655.228 224 700 268.772 700 324C700 379.228 655.228 424 600 424Z" fill="#16A3B2"/>
<rect x="400" y="624" width="200" height="200" rx="100" fill="#FFC641"/>
<rect x="600" y="424" width="200" height="200" rx="100" fill="#FFC641"/>
<path d="M400 524C400 468.772 444.772 424 500 424H600V624H500C444.772 624 400 579.228 400 524V524Z" fill="#FF87A2"/>
<path fill-rule="evenodd" clip-rule="evenodd" d="M200 124C200 68.7715 244.772 24 300 24C355.228 24 400 68.7715 400 124V224V324C400 379.228 355.228 424 300 424C244.772 424 200 379.228 200 324V224V124Z" fill="#FE5E33"/>
<path fill-rule="evenodd" clip-rule="evenodd" d="M400 224C455.228 224 500 268.772 500 324C444.772 324 400 279.228 400 224Z" fill="#16A3B2"/>
<path fill-rule="evenodd" clip-rule="evenodd" d="M350 810.577C320.11 793.286 300 760.969 300 723.955C300 686.941 320.11 654.624 350 637.333C379.89 654.624 400 686.941 400 723.955C400 760.969 379.89 793.286 350 810.577V810.577Z" fill="#111747"/>
<rect x="50" y="674" width="100" height="100" rx="50" fill="#FE5E33"/>
<rect x="250" y="474" width="100" height="100" rx="50" fill="#FE5E33"/>
<rect x="450" y="474" width="100" height="100" rx="50" fill="#16A3B2"/>
<rect x="250" y="74" width="100" height="100" rx="50" fill="#FFC641"/>
<path fill-rule="evenodd" clip-rule="evenodd" d="M500 924C500 868.772 544.772 824 600 824C600 879.228 555.228 924 500 924Z" fill="#111747"/>
<path fill-rule="evenodd" clip-rule="evenodd" d="M300 524C300 579.228 255.228 624 200 624C200 568.772 244.772 524 300 524Z" fill="#06818E"/>
</svg>
